<svg width="20" height="20" viewBox="0 0 20 20" fill="none" xmlns="http://www.w3.org/2000/svg">
<path d="M15 3.33333H14.1667V2.5C14.1667 2.27899 14.0789 2.06703 13.9226 1.91075C13.7663 1.75447 13.5543 1.66667 13.3333 1.66667C13.1123 1.66667 12.9004 1.75447 12.7441 1.91075C12.5878 2.06703 12.5 2.27899 12.5 2.5V3.33333H7.5V2.5C7.5 2.27899 7.4122 2.06703 7.25592 1.91075C7.09964 1.75447 6.88768 1.66667 6.66667 1.66667C6.44565 1.66667 6.23369 1.75447 6.07741 1.91075C5.92113 2.06703 5.83333 2.27899 5.83333 2.5V3.33333H5C4.33696 3.33333 3.70107 3.59673 3.23223 4.06557C2.76339 4.53441 2.5 5.17029 2.5 5.83333V15.8333C2.5 16.4964 2.76339 17.1323 3.23223 17.6011C3.70107 18.0699 4.33696 18.3333 5 18.3333H15C15.663 18.3333 16.2989 18.0699 16.7678 17.6011C17.2366 17.1323 17.5 16.4964 17.5 15.8333V5.83333C17.5 5.17029 17.2366 4.53441 16.7678 4.06557C16.2989 3.59673 15.663 3.33333 15 3.33333ZM5 5H5.83333V5.83333C5.83333 6.05435 5.92113 6.26631 6.07741 6.42259C6.23369 6.57887 6.44565 6.66667 6.66667 6.66667C6.88768 6.66667 7.09964 6.57887 7.25592 6.42259C7.4122 6.26631 7.5 6.05435 7.5 5.83333V5H12.5V5.83333C12.5 6.05435 12.5878 6.26631 12.7441 6.42259C12.9004 6.57887 13.1123 6.66667 13.3333 6.66667C13.5543 6.66667 13.7663 6.57887 13.9226 6.42259C14.0789 6.26631 14.1667 6.05435 14.1667 5.83333V5H15C15.221 5 15.433 5.0878 15.5893 5.24408C15.7455 5.40036 15.8333 5.61232 15.8333 5.83333V9.16667H4.16667V5.83333C4.16667 5.61232 4.25446 5.40036 4.41074 5.24408C4.56702 5.0878 4.77899 5 5 5ZM15 16.6667H5C4.77899 16.6667 4.56702 16.5789 4.41074 16.4226C4.25446 16.2663 4.16667 16.0543 4.16667 15.8333V10.8333H15.8333V15.8333C15.8333 16.0543 15.7455 16.2663 15.5893 16.4226C15.433 16.5789 15.221 16.6667 15 16.6667Z" fill="#1A5D1A"/>
<path d="M6.66665 14.1667C7.12688 14.1667 7.49998 13.7936 7.49998 13.3333C7.49998 12.8731 7.12688 12.5 6.66665 12.5C6.20641 12.5 5.83331 12.8731 5.83331 13.3333C5.83331 13.7936 6.20641 14.1667 6.66665 14.1667Z" fill="#1A5D1A"/>
<path d="M13.3334 12.5H10C9.77901 12.5 9.56705 12.5878 9.41076 12.7441C9.25448 12.9004 9.16669 13.1123 9.16669 13.3333C9.16669 13.5543 9.25448 13.7663 9.41076 13.9226C9.56705 14.0789 9.77901 14.1667 10 14.1667H13.3334C13.5544 14.1667 13.7663 14.0789 13.9226 13.9226C14.0789 13.7663 14.1667 13.5543 14.1667 13.3333C14.1667 13.1123 14.0789 12.9004 13.9226 12.7441C13.7663 12.5878 13.5544 12.5 13.3334 12.5Z" fill="#1A5D1A"/>
</svg>
