<svg width="14" height="15" viewBox="0 0 14 15" fill="none" xmlns="http://www.w3.org/2000/svg">
<path d="M7.00002 0.333344C6.77901 0.333344 6.56705 0.421141 6.41076 0.577421C6.25448 0.733702 6.16669 0.945663 6.16669 1.16668V13.6667C6.16669 13.8877 6.25448 14.0997 6.41076 14.2559C6.56705 14.4122 6.77901 14.5 7.00002 14.5C7.22103 14.5 7.433 14.4122 7.58928 14.2559C7.74556 14.0997 7.83335 13.8877 7.83335 13.6667V1.16668C7.83335 0.945663 7.74556 0.733702 7.58928 0.577421C7.433 0.421141 7.22103 0.333344 7.00002 0.333344Z" fill="#1A5D1A"/>
<path d="M12.8333 7C12.6123 7 12.4004 7.0878 12.2441 7.24408C12.0878 7.40036 12 7.61232 12 7.83333V13.6667C12 13.8877 12.0878 14.0996 12.2441 14.2559C12.4004 14.4122 12.6123 14.5 12.8333 14.5C13.0543 14.5 13.2663 14.4122 13.4226 14.2559C13.5789 14.0996 13.6667 13.8877 13.6667 13.6667V7.83333C13.6667 7.61232 13.5789 7.40036 13.4226 7.24408C13.2663 7.0878 13.0543 7 12.8333 7Z" fill="#1A5D1A"/>
<path d="M1.16665 3.66666C0.945633 3.66666 0.733671 3.75445 0.577391 3.91073C0.421111 4.06701 0.333313 4.27898 0.333313 4.49999V13.6667C0.333313 13.8877 0.421111 14.0996 0.577391 14.2559C0.733671 14.4122 0.945633 14.5 1.16665 14.5C1.38766 14.5 1.59962 14.4122 1.7559 14.2559C1.91218 14.0996 1.99998 13.8877 1.99998 13.6667V4.49999C1.99998 4.27898 1.91218 4.06701 1.7559 3.91073C1.59962 3.75445 1.38766 3.66666 1.16665 3.66666Z" fill="#1A5D1A"/>
</svg>
