<svg width="21" height="20" viewBox="0 0 21 20" fill="none" xmlns="http://www.w3.org/2000/svg">
<path d="M10.8298 13.5C10.6171 13.4989 10.4073 13.4505 10.2155 13.3583C10.0238 13.266 9.85508 13.1322 9.7215 12.9667L6.21316 8.71667C6.00816 8.46081 5.87915 8.1525 5.84084 7.82689C5.80254 7.50128 5.85647 7.17145 5.9965 6.875C6.11006 6.61736 6.29539 6.39784 6.53035 6.24269C6.7653 6.08753 7.03995 6.00328 7.3215 6H14.3382C14.6197 6.00328 14.8944 6.08753 15.1293 6.24269C15.3643 6.39784 15.5496 6.61736 15.6632 6.875C15.8032 7.17145 15.8571 7.50128 15.8188 7.82689C15.7805 8.1525 15.6515 8.46081 15.4465 8.71667L11.9382 12.9667C11.8046 13.1322 11.6358 13.266 11.4441 13.3583C11.2524 13.4505 11.0426 13.4989 10.8298 13.5Z" fill="#1A5D1A"/>
</svg>
