<svg width="20" height="20" viewBox="0 0 20 20" fill="none" xmlns="http://www.w3.org/2000/svg">
<path d="M14.9999 12.5C14.3453 12.5005 13.7169 12.7578 13.2499 13.2167L6.66661 10.2833C6.66661 10.1833 6.66661 10.1 6.66661 9.99998C6.66661 9.89998 6.66661 9.81665 6.66661 9.72498L13.2499 6.78332C13.6623 7.1875 14.2018 7.43649 14.7769 7.48799C15.352 7.5395 15.9272 7.39035 16.4048 7.06587C16.8825 6.7414 17.233 6.2616 17.397 5.70797C17.561 5.15435 17.5283 4.56103 17.3044 4.02878C17.0806 3.49653 16.6794 3.05818 16.169 2.78816C15.6587 2.51814 15.0706 2.43312 14.5046 2.54752C13.9386 2.66193 13.4297 2.96871 13.0643 3.41576C12.6989 3.86282 12.4995 4.42258 12.4999 4.99998V5.28332L5.91661 8.21665C5.56525 7.87144 5.11973 7.63773 4.636 7.54484C4.15227 7.45195 3.65187 7.50403 3.19764 7.69454C2.7434 7.88505 2.35556 8.2055 2.08281 8.61566C1.81006 9.02582 1.66455 9.50741 1.66455 9.99998C1.66455 10.4926 1.81006 10.9741 2.08281 11.3843C2.35556 11.7945 2.7434 12.1149 3.19764 12.3054C3.65187 12.4959 4.15227 12.548 4.636 12.4551C5.11973 12.3622 5.56525 12.1285 5.91661 11.7833L12.4999 14.725V15C12.4999 15.4944 12.6466 15.9778 12.9213 16.3889C13.196 16.8 13.5864 17.1205 14.0432 17.3097C14.5001 17.4989 15.0027 17.5484 15.4877 17.4519C15.9726 17.3555 16.4181 17.1174 16.7677 16.7678C17.1173 16.4181 17.3554 15.9727 17.4519 15.4877C17.5484 15.0028 17.4989 14.5001 17.3096 14.0433C17.1204 13.5865 16.8 13.196 16.3889 12.9213C15.9777 12.6466 15.4944 12.5 14.9999 12.5ZM14.9999 4.16665C15.1648 4.16665 15.3259 4.21552 15.4629 4.30709C15.6 4.39866 15.7068 4.52881 15.7698 4.68108C15.8329 4.83335 15.8494 5.00091 15.8173 5.16256C15.7851 5.32421 15.7057 5.4727 15.5892 5.58924C15.4727 5.70578 15.3242 5.78515 15.1625 5.8173C15.0009 5.84946 14.8333 5.83296 14.681 5.76988C14.5288 5.70681 14.3986 5.6 14.3071 5.46296C14.2155 5.32592 14.1666 5.1648 14.1666 4.99998C14.1666 4.77897 14.2544 4.56701 14.4107 4.41073C14.567 4.25445 14.7789 4.16665 14.9999 4.16665ZM4.16661 10.8333C4.0018 10.8333 3.84068 10.7844 3.70364 10.6929C3.5666 10.6013 3.45979 10.4712 3.39671 10.3189C3.33364 10.1666 3.31714 9.99906 3.34929 9.83741C3.38145 9.67576 3.46081 9.52727 3.57736 9.41073C3.6939 9.29418 3.84239 9.21482 4.00404 9.18266C4.16569 9.15051 4.33324 9.16701 4.48552 9.23008C4.63779 9.29316 4.76794 9.39997 4.8595 9.53701C4.95107 9.67405 4.99995 9.83517 4.99995 9.99998C4.99995 10.221 4.91215 10.433 4.75587 10.5892C4.59959 10.7455 4.38763 10.8333 4.16661 10.8333ZM14.9999 15.8333C14.8351 15.8333 14.674 15.7844 14.537 15.6929C14.3999 15.6013 14.2931 15.4712 14.23 15.3189C14.167 15.1666 14.1505 14.9991 14.1826 14.8374C14.2148 14.6758 14.2941 14.5273 14.4107 14.4107C14.5272 14.2942 14.6757 14.2148 14.8374 14.1827C14.999 14.1505 15.1666 14.167 15.3189 14.2301C15.4711 14.2932 15.6013 14.4 15.6928 14.537C15.7844 14.674 15.8333 14.8352 15.8333 15C15.8333 15.221 15.7455 15.433 15.5892 15.5892C15.4329 15.7455 15.221 15.8333 14.9999 15.8333Z" fill="#1A5D1A"/>
</svg>
