<svg width="20" height="20" viewBox="0 0 20 20" fill="none" xmlns="http://www.w3.org/2000/svg">
<g clip-path="url(#clip0_98_317)">
<path d="M13.5334 6.46669C12.5584 5.49169 11.2834 5.00002 10 5.00002V10L6.46669 13.5334C8.41669 15.4834 11.5834 15.4834 13.5417 13.5334C15.4917 11.5834 15.4917 8.41669 13.5334 6.46669ZM10 1.66669C5.40002 1.66669 1.66669 5.40002 1.66669 10C1.66669 14.6 5.40002 18.3334 10 18.3334C14.6 18.3334 18.3334 14.6 18.3334 10C18.3334 5.40002 14.6 1.66669 10 1.66669ZM10 16.6667C6.31669 16.6667 3.33335 13.6834 3.33335 10C3.33335 6.31669 6.31669 3.33335 10 3.33335C13.6834 3.33335 16.6667 6.31669 16.6667 10C16.6667 13.6834 13.6834 16.6667 10 16.6667Z" fill="#1A5D1A"/>
</g>
<defs>
<clipPath id="clip0_98_317">
<rect width="20" height="20" fill="white"/>
</clipPath>
</defs>
</svg>
